<svg width="283" height="56" viewBox="0 0 283 56" fill="none" xmlns="http://www.w3.org/2000/svg">
<path d="M74.9132 45.4796C71.7318 45.4796 68.9661 44.7602 66.616 43.3214C64.282 41.8666 62.4755 39.8123 61.1965 37.1585C59.9336 34.5047 59.3021 31.3713 59.3021 27.7583C59.3021 24.0813 59.9655 20.9079 61.2924 18.2381C62.6353 15.5524 64.5058 13.4821 66.9038 12.0273C69.3018 10.5725 72.0995 9.84508 75.2969 9.84508C77.3592 9.84508 79.2376 10.1728 80.9322 10.8283C82.6268 11.4837 84.0976 12.379 85.3446 13.514C86.6075 14.6491 87.5907 15.936 88.2941 17.3748C89.0135 18.7977 89.4052 20.2764 89.4691 21.8112H82.0833C81.8754 20.7081 81.4598 19.7009 80.8363 18.7897C80.2288 17.8784 79.4454 17.151 78.4862 16.6075C77.527 16.0479 76.4079 15.7682 75.129 15.7682C73.5943 15.7682 72.2034 16.1678 70.9565 16.9672C69.7095 17.7505 68.7263 19.0055 68.0069 20.7321C67.2875 22.4586 66.9278 24.7368 66.9278 27.5664C66.9278 29.8525 67.1596 31.755 67.6232 33.2737C68.1028 34.7924 68.7423 35.9994 69.5416 36.8947C70.341 37.774 71.2522 38.3975 72.2754 38.7652C73.2985 39.1329 74.3457 39.3167 75.4168 39.3167C76.4399 39.3167 77.3512 39.1488 78.1505 38.8131C78.9658 38.4614 79.6613 38.0138 80.2368 37.4702C80.8123 36.9267 81.2679 36.3352 81.6036 35.6957C81.9394 35.0402 82.1552 34.4008 82.2511 33.7773L82.5149 31.667H75.3448V26.823L89.8528 26.895V45H85.0808V40.4677C84.4893 41.2511 83.7539 42.0345 82.8746 42.8178C82.0113 43.5852 80.9322 44.2246 79.6373 44.7362C78.3583 45.2318 76.7836 45.4796 74.9132 45.4796ZM99.7465 34.2089C99.7305 35.4719 99.9304 36.575 100.346 37.5182C100.762 38.4454 101.361 39.1648 102.145 39.6764C102.944 40.172 103.903 40.4198 105.022 40.4198C106.221 40.4198 107.268 40.164 108.164 39.6524C109.075 39.1408 109.706 38.3015 110.058 37.1345H116.365C116.093 38.8931 115.39 40.3958 114.255 41.6428C113.135 42.8897 111.777 43.841 110.178 44.4964C108.579 45.1519 106.917 45.4796 105.19 45.4796C102.744 45.4796 100.586 44.968 98.7154 43.9449C96.8609 42.9057 95.4141 41.4429 94.375 39.5565C93.3358 37.6701 92.8162 35.4479 92.8162 32.89C92.8162 30.4121 93.2879 28.1819 94.2311 26.1996C95.1743 24.2012 96.5412 22.6265 98.3317 21.4755C100.138 20.3084 102.304 19.7249 104.83 19.7249C107.356 19.7249 109.474 20.2605 111.185 21.3316C112.912 22.3867 114.207 23.8655 115.07 25.7679C115.949 27.6543 116.389 29.8365 116.389 32.3145V34.2089H99.7465ZM99.7225 30.0364H109.842C109.842 29.0452 109.658 28.134 109.291 27.3026C108.923 26.4713 108.363 25.8159 107.612 25.3363C106.877 24.8567 105.949 24.6169 104.83 24.6169C103.743 24.6169 102.816 24.8806 102.049 25.4082C101.297 25.9198 100.722 26.5912 100.322 27.4225C99.9224 28.2539 99.7225 29.1251 99.7225 30.0364ZM133.163 25.0725H127.648L127.696 38.2856C127.696 38.8931 127.768 39.3487 127.912 39.6524C128.071 39.9402 128.311 40.132 128.631 40.2279C128.967 40.3079 129.39 40.3478 129.902 40.3478H133.235V44.6643C132.915 44.8082 132.412 44.944 131.724 45.0719C131.053 45.1998 130.11 45.2638 128.895 45.2638C126.721 45.2638 125.034 44.984 123.835 44.4245C122.652 43.8649 121.829 43.0816 121.365 42.0744C120.901 41.0673 120.67 39.9002 120.67 38.5733V25.0725H116.641V20.2045H120.909L122.66 12.7227H127.648V20.1805H133.163V25.0725ZM149.846 45.4796C148.136 45.4796 146.457 45.2638 144.81 44.8321C143.164 44.4005 141.661 43.753 140.302 42.8897C138.943 42.0265 137.816 40.9474 136.921 39.6524C136.042 38.3575 135.514 36.8388 135.338 35.0962H142.508C142.748 36.1513 143.204 37.0386 143.875 37.758C144.547 38.4774 145.394 39.0289 146.417 39.4126C147.44 39.7963 148.575 39.9881 149.822 39.9881C151.101 39.9881 152.268 39.8283 153.323 39.5085C154.379 39.1888 155.226 38.7092 155.865 38.0697C156.505 37.4143 156.825 36.5989 156.825 35.6238C156.825 34.7445 156.561 34.0251 156.033 33.4655C155.522 32.906 154.826 32.4504 153.947 32.0987C153.068 31.747 152.068 31.4592 150.949 31.2354L144.954 30.0124C142.333 29.5168 140.254 28.4777 138.72 26.895C137.185 25.2963 136.393 23.1701 136.345 20.5163C136.33 18.3421 136.905 16.4636 138.072 14.8809C139.255 13.2822 140.854 12.0513 142.868 11.188C144.898 10.3247 147.169 9.89304 149.678 9.89304C152.668 9.89304 155.178 10.3646 157.208 11.3079C159.255 12.2351 160.805 13.4981 161.86 15.0967C162.931 16.6794 163.483 18.446 163.515 20.3964H156.489C156.361 19.1814 155.993 18.2142 155.386 17.4948C154.778 16.7753 153.995 16.2558 153.036 15.936C152.092 15.6163 151.013 15.4564 149.798 15.4564C148.871 15.4564 148.024 15.5603 147.256 15.7682C146.505 15.976 145.866 16.2718 145.338 16.6554C144.81 17.0231 144.403 17.4628 144.115 17.9744C143.827 18.4859 143.683 19.0615 143.683 19.7009C143.683 20.7081 144.019 21.5234 144.691 22.1469C145.362 22.7704 146.617 23.282 148.455 23.6816L154.403 24.9046C156.529 25.3203 158.215 25.9358 159.462 26.7511C160.725 27.5664 161.669 28.4857 162.292 29.5088C162.932 30.532 163.347 31.5791 163.539 32.6502C163.747 33.7053 163.851 34.6805 163.851 35.5758C163.851 37.4462 163.259 39.1329 162.076 40.6356C160.909 42.1224 159.279 43.3054 157.184 44.1847C155.09 45.048 152.644 45.4796 149.846 45.4796ZM177.136 19.7249C179.214 19.7249 181.005 20.1486 182.507 20.9959C184.026 21.8432 185.217 22.9862 186.08 24.425C186.96 25.8638 187.463 27.4705 187.591 29.245H181.764C181.652 28.5896 181.42 27.9421 181.068 27.3026C180.717 26.6472 180.221 26.1116 179.582 25.696C178.942 25.2643 178.143 25.0485 177.184 25.0485C175.553 25.0485 174.226 25.68 173.203 26.9429C172.196 28.1899 171.692 30.0923 171.692 32.6502C171.692 35.0642 172.188 36.9826 173.179 38.4055C174.17 39.8123 175.553 40.5157 177.328 40.5157C178.271 40.5157 179.054 40.2839 179.678 39.8203C180.317 39.3567 180.813 38.8051 181.164 38.1657C181.516 37.5102 181.74 36.9027 181.836 36.3432H187.519C187.407 38.0537 186.912 39.6045 186.032 40.9953C185.153 42.3702 183.954 43.4653 182.435 44.2806C180.933 45.0799 179.166 45.4796 177.136 45.4796C174.834 45.4796 172.779 44.968 170.973 43.9449C169.166 42.9217 167.744 41.4589 166.704 39.5565C165.681 37.6381 165.17 35.352 165.17 32.6982C165.17 30.1403 165.665 27.8862 166.656 25.9358C167.648 23.9854 169.038 22.4666 170.829 21.3795C172.635 20.2765 174.738 19.7249 177.136 19.7249ZM190.015 45V20.2045H196.753V26.0797C197.153 24.8167 197.713 23.7136 198.432 22.7704C199.167 21.8112 200.055 21.0678 201.094 20.5402C202.133 19.9967 203.308 19.7249 204.619 19.7249C204.843 19.7249 205.051 19.7409 205.242 19.7729C205.45 19.7889 205.602 19.8208 205.698 19.8688V26.5353C205.554 26.4713 205.378 26.4314 205.17 26.4154C204.979 26.3994 204.803 26.3834 204.643 26.3674C203.268 26.2555 202.093 26.2955 201.118 26.4873C200.143 26.6792 199.351 27.0069 198.744 27.4705C198.136 27.9341 197.697 28.5016 197.425 29.1731C197.153 29.8445 197.017 30.5959 197.017 31.4272V45H190.015ZM214.014 45.4796C212.431 45.4796 211.008 45.1838 209.745 44.5923C208.482 44.0008 207.483 43.1455 206.748 42.0265C206.012 40.8914 205.645 39.5165 205.645 37.9019C205.645 35.1841 206.66 33.1218 208.69 31.715C210.721 30.2922 213.926 29.5568 218.306 29.5088L221.4 29.4609V27.9741C221.4 26.839 221.064 25.9677 220.393 25.3602C219.737 24.7368 218.714 24.433 217.323 24.449C216.3 24.465 215.325 24.7048 214.398 25.1684C213.486 25.632 212.863 26.4394 212.527 27.5904H206.7C206.796 25.7999 207.315 24.3291 208.259 23.1781C209.202 22.011 210.481 21.1477 212.095 20.5882C213.726 20.0127 215.573 19.7249 217.635 19.7249C220.177 19.7249 222.215 20.0446 223.75 20.6841C225.285 21.3076 226.396 22.2109 227.083 23.3939C227.77 24.5609 228.114 25.9518 228.114 27.5664V45H222.263L221.688 40.7315C220.84 42.522 219.777 43.761 218.498 44.4485C217.235 45.1359 215.74 45.4796 214.014 45.4796ZM216.364 40.8754C217.003 40.8754 217.619 40.7635 218.21 40.5397C218.818 40.2999 219.353 39.9881 219.817 39.6045C220.297 39.2048 220.68 38.7572 220.968 38.2616C221.256 37.766 221.4 37.2544 221.4 36.7268V33.0579L218.882 33.1058C217.715 33.1218 216.628 33.2657 215.621 33.5375C214.613 33.7933 213.798 34.2169 213.175 34.8084C212.567 35.3999 212.263 36.1993 212.263 37.2064C212.263 38.3575 212.663 39.2607 213.462 39.9162C214.262 40.5557 215.229 40.8754 216.364 40.8754ZM231.915 52.7216V20.2045H238.941L238.965 23.7776C239.333 23.186 239.78 22.6505 240.308 22.1709C240.851 21.6753 241.451 21.2437 242.106 20.876C242.762 20.5083 243.473 20.2285 244.24 20.0366C245.008 19.8288 245.815 19.7249 246.662 19.7249C248.501 19.7249 250.14 20.1805 251.578 21.0918C253.017 21.987 254.144 23.3779 254.96 25.2643C255.791 27.1348 256.207 29.5168 256.207 32.4104C256.207 35.4159 255.759 37.8859 254.864 39.8203C253.984 41.7387 252.769 43.1615 251.219 44.0888C249.668 45.016 247.917 45.4796 245.967 45.4796C245.168 45.4796 244.416 45.3677 243.713 45.1439C243.01 44.9361 242.354 44.6403 241.747 44.2566C241.155 43.8729 240.619 43.4333 240.14 42.9377C239.676 42.4261 239.269 41.8746 238.917 41.2831V52.7216H231.915ZM244.288 40.3478C245.807 40.3478 247.078 39.7164 248.101 38.4534C249.14 37.1905 249.66 35.1921 249.66 32.4584C249.66 30.0604 249.164 28.1899 248.173 26.847C247.198 25.4881 245.903 24.8087 244.288 24.8087C242.482 24.8087 241.131 25.5441 240.236 27.0149C239.357 28.4697 238.917 30.2842 238.917 32.4584C238.917 33.8492 239.109 35.1442 239.492 36.3432C239.892 37.5422 240.484 38.5094 241.267 39.2448C242.066 39.9802 243.073 40.3478 244.288 40.3478ZM264.217 34.2089C264.201 35.4719 264.401 36.575 264.816 37.5182C265.232 38.4454 265.831 39.1648 266.615 39.6764C267.414 40.172 268.373 40.4198 269.492 40.4198C270.691 40.4198 271.738 40.164 272.634 39.6524C273.545 39.1408 274.176 38.3015 274.528 37.1345H280.835C280.563 38.8931 279.86 40.3958 278.725 41.6428C277.606 42.8897 276.247 43.841 274.648 44.4964C273.049 45.1519 271.387 45.4796 269.66 45.4796C267.214 45.4796 265.056 44.968 263.186 43.9449C261.331 42.9057 259.884 41.4429 258.845 39.5565C257.806 37.6701 257.286 35.4479 257.286 32.89C257.286 30.4121 257.758 28.1819 258.701 26.1996C259.645 24.2012 261.011 22.6265 262.802 21.4755C264.608 20.3084 266.775 19.7249 269.301 19.7249C271.826 19.7249 273.945 20.2605 275.655 21.3316C277.382 22.3867 278.677 23.8655 279.54 25.7679C280.419 27.6543 280.859 29.8365 280.859 32.3145V34.2089H264.217ZM264.193 30.0364H274.312C274.312 29.0452 274.129 28.134 273.761 27.3026C273.393 26.4713 272.834 25.8159 272.082 25.3363C271.347 24.8567 270.42 24.6169 269.301 24.6169C268.213 24.6169 267.286 24.8806 266.519 25.4082C265.767 25.9198 265.192 26.5912 264.792 27.4225C264.393 28.2539 264.193 29.1251 264.193 30.0364Z" fill="#1B72F4"/>
<circle cx="25" cy="28" r="25" fill="#1B72F4"/>
<path fill-rule="evenodd" clip-rule="evenodd" d="M12.118 22.9998H23.8846L21.7667 33.769H10L12.118 22.9998Z" fill="white"/>
<path fill-rule="evenodd" clip-rule="evenodd" d="M27.4641 22.9998H39.2307L37.1127 33.769H25.3461L27.4641 22.9998Z" fill="white"/>
</svg>
