<svg width="140" height="22" viewBox="0 0 140 22" fill="none" xmlns="http://www.w3.org/2000/svg">
<path d="M27.8537 17.5362C26.684 17.5362 25.6671 17.2717 24.8031 16.7427C23.9449 16.2078 23.2807 15.4525 22.8105 14.4768C22.3461 13.501 22.1139 12.349 22.1139 11.0206C22.1139 9.66868 22.3579 8.50192 22.8457 7.52032C23.3395 6.53284 24.0272 5.77165 24.9089 5.23677C25.7905 4.70188 26.8192 4.43444 27.9947 4.43444C28.753 4.43444 29.4436 4.55494 30.0667 4.79593C30.6897 5.03692 31.2305 5.36608 31.689 5.78341C32.1533 6.20074 32.5148 6.67391 32.7734 7.20291C33.0379 7.72604 33.1819 8.26975 33.2055 8.83402H30.4899C30.4135 8.42845 30.2606 8.05814 30.0314 7.72311C29.8081 7.38807 29.52 7.12062 29.1674 6.92078C28.8147 6.71505 28.4032 6.61219 27.933 6.61219C27.3687 6.61219 26.8574 6.75914 26.3989 7.05303C25.9404 7.34104 25.5789 7.80246 25.3144 8.43727C25.0499 9.07208 24.9177 9.90967 24.9177 10.9501C24.9177 11.7906 25.0029 12.4901 25.1734 13.0485C25.3497 13.6068 25.5848 14.0506 25.8787 14.3798C26.1726 14.7031 26.5076 14.9323 26.8838 15.0675C27.26 15.2027 27.645 15.2703 28.0388 15.2703C28.415 15.2703 28.75 15.2086 29.0439 15.0851C29.3437 14.9558 29.5994 14.7912 29.811 14.5914C30.0226 14.3915 30.1901 14.1741 30.3135 13.9389C30.437 13.698 30.5163 13.4628 30.5516 13.2336L30.6486 12.4577H28.0124V10.6767L33.3465 10.7032V17.3599H31.592V15.6935C31.3745 15.9815 31.1041 16.2695 30.7808 16.5575C30.4634 16.8397 30.0667 17.0748 29.5906 17.2629C29.1203 17.4451 28.5414 17.5362 27.8537 17.5362ZM36.9841 13.3923C36.9783 13.8567 37.0517 14.2622 37.2046 14.609C37.3574 14.9499 37.5778 15.2144 37.8658 15.4025C38.1597 15.5847 38.5124 15.6759 38.9238 15.6759C39.3647 15.6759 39.7497 15.5818 40.0788 15.3937C40.4139 15.2056 40.6461 14.897 40.7754 14.468H43.0942C42.9943 15.1145 42.7356 15.667 42.3183 16.1255C41.9069 16.584 41.4072 16.9337 40.8194 17.1747C40.2317 17.4157 39.6204 17.5362 38.9856 17.5362C38.0862 17.5362 37.2927 17.3481 36.605 16.9719C35.9232 16.5899 35.3912 16.052 35.0092 15.3585C34.6271 14.6649 34.4361 13.8478 34.4361 12.9074C34.4361 11.9963 34.6095 11.1764 34.9563 10.4475C35.3031 9.71276 35.8056 9.13379 36.464 8.71059C37.1282 8.2815 37.9246 8.06696 38.8533 8.06696C39.782 8.06696 40.5608 8.26387 41.1898 8.65769C41.8246 9.04562 42.3007 9.58933 42.6181 10.2888C42.9414 10.9824 43.103 11.7847 43.103 12.6958V13.3923H36.9841ZM36.9753 11.8582H40.696C40.696 11.4938 40.6284 11.1587 40.4932 10.8531C40.358 10.5474 40.1523 10.3064 39.8761 10.1301C39.6057 9.95375 39.2648 9.86559 38.8533 9.86559C38.4536 9.86559 38.1127 9.96257 37.8306 10.1565C37.5543 10.3446 37.3427 10.5915 37.1957 10.8972C37.0488 11.2028 36.9753 11.5231 36.9753 11.8582ZM49.2705 10.0331H47.2426L47.2603 14.8912C47.2603 15.1145 47.2867 15.282 47.3396 15.3937C47.3984 15.4995 47.4866 15.5701 47.6041 15.6053C47.7275 15.6347 47.8833 15.6494 48.0714 15.6494H49.2969V17.2364C49.1794 17.2893 48.9942 17.3393 48.7415 17.3863C48.4946 17.4333 48.1478 17.4568 47.7011 17.4568C46.9017 17.4568 46.2816 17.354 45.8408 17.1483C45.4058 16.9425 45.1031 16.6545 44.9326 16.2842C44.7622 15.9139 44.6769 15.4848 44.6769 14.997V10.0331H43.1957V8.2433H44.7651L45.4087 5.49246H47.2426V8.23448H49.2705V10.0331ZM55.4044 17.5362C54.7754 17.5362 54.1583 17.4568 53.5528 17.2981C52.9474 17.1394 52.3949 16.9014 51.8953 16.584C51.3957 16.2666 50.9813 15.8698 50.6521 15.3937C50.3288 14.9176 50.1349 14.3592 50.0702 13.7185H52.7064C52.7946 14.1065 52.9621 14.4327 53.209 14.6972C53.4558 14.9617 53.7674 15.1645 54.1436 15.3055C54.5197 15.4466 54.9371 15.5172 55.3955 15.5172C55.8658 15.5172 56.2949 15.4584 56.6828 15.3408C57.0707 15.2233 57.3823 15.0469 57.6174 14.8118C57.8525 14.5708 57.97 14.271 57.97 13.9125C57.97 13.5892 57.8731 13.3247 57.6791 13.119C57.491 12.9133 57.2353 12.7457 56.912 12.6164C56.5887 12.4871 56.2214 12.3813 55.8099 12.299L53.6057 11.8494C52.6418 11.6672 51.8776 11.2851 51.3134 10.7032C50.7491 10.1154 50.4581 9.33364 50.4405 8.35791C50.4346 7.55853 50.6462 6.86788 51.0753 6.28597C51.5103 5.69818 52.0981 5.24559 52.8387 4.92818C53.5852 4.61078 54.4198 4.45207 55.3426 4.45207C56.4418 4.45207 57.3646 4.62547 58.1111 4.97227C58.8635 5.31318 59.4336 5.77753 59.8216 6.36532C60.2154 6.94723 60.4182 7.59673 60.4299 8.31383H57.8466C57.7996 7.86711 57.6644 7.5115 57.441 7.247C57.2177 6.98249 56.9297 6.79146 56.577 6.67391C56.2302 6.55635 55.8334 6.49757 55.3867 6.49757C55.0458 6.49757 54.7343 6.53578 54.4521 6.61219C54.1759 6.6886 53.9408 6.79734 53.7468 6.93841C53.5528 7.0736 53.4029 7.23524 53.2971 7.42333C53.1913 7.61143 53.1384 7.82303 53.1384 8.05814C53.1384 8.42845 53.2619 8.72822 53.5087 8.95746C53.7556 9.18669 54.217 9.37479 54.893 9.52173L57.0795 9.97139C57.8613 10.1242 58.4814 10.3505 58.9399 10.6503C59.4042 10.9501 59.751 11.288 59.9803 11.6642C60.2154 12.0404 60.3682 12.4254 60.4387 12.8192C60.5152 13.2072 60.5534 13.5657 60.5534 13.8949C60.5534 14.5826 60.3359 15.2027 59.9009 15.7552C59.4718 16.3018 58.8723 16.7368 58.1023 17.0601C57.3323 17.3775 56.433 17.5362 55.4044 17.5362ZM65.4379 8.06696C66.202 8.06696 66.8603 8.22272 67.4128 8.53425C67.9712 8.84578 68.4091 9.26604 68.7265 9.79505C69.0498 10.3241 69.235 10.9148 69.282 11.5672H67.1395C67.0984 11.3262 67.0131 11.0882 66.8838 10.8531C66.7545 10.6121 66.5723 10.4152 66.3372 10.2623C66.1021 10.1036 65.8082 10.0243 65.4555 10.0243C64.856 10.0243 64.3681 10.2565 63.9919 10.7208C63.6216 11.1793 63.4365 11.8788 63.4365 12.8192C63.4365 13.7068 63.6187 14.4121 63.9831 14.9352C64.3475 15.4525 64.856 15.7111 65.5084 15.7111C65.8552 15.7111 66.1432 15.6259 66.3725 15.4554C66.6076 15.285 66.7898 15.0822 66.9191 14.8471C67.0484 14.6061 67.1307 14.3827 67.166 14.177H69.2555C69.2144 14.8059 69.0322 15.3761 68.7089 15.8875C68.3856 16.393 67.9448 16.7956 67.3864 17.0954C66.8339 17.3893 66.1844 17.5362 65.4379 17.5362C64.5915 17.5362 63.8362 17.3481 63.172 16.9719C62.5078 16.5957 61.9846 16.0579 61.6026 15.3585C61.2264 14.6531 61.0383 13.8126 61.0383 12.8368C61.0383 11.8964 61.2205 11.0676 61.5849 10.3505C61.9494 9.63341 62.4607 9.07501 63.1191 8.67532C63.7833 8.26975 64.5562 8.06696 65.4379 8.06696ZM70.1732 17.3599V8.2433H72.6507V10.4034C72.7976 9.93906 73.0034 9.53349 73.2679 9.18669C73.5383 8.83402 73.8645 8.5607 74.2465 8.36673C74.6286 8.16688 75.0606 8.06696 75.5426 8.06696C75.6249 8.06696 75.7013 8.07284 75.7718 8.08459C75.8483 8.09047 75.9041 8.10223 75.9394 8.11986V10.5709C75.8865 10.5474 75.8218 10.5327 75.7454 10.5268C75.6749 10.521 75.6102 10.5151 75.5514 10.5092C75.0459 10.4681 74.6139 10.4828 74.2554 10.5533C73.8968 10.6238 73.6059 10.7443 73.3825 10.9148C73.1591 11.0852 72.9975 11.2939 72.8976 11.5408C72.7976 11.7876 72.7477 12.0639 72.7477 12.3696V17.3599H70.1732ZM78.5367 13.3923C78.5309 13.8567 78.6043 14.2622 78.7572 14.609C78.91 14.9499 79.1304 15.2144 79.4184 15.4025C79.7123 15.5847 80.065 15.6759 80.4764 15.6759C80.9173 15.6759 81.3023 15.5818 81.6314 15.3937C81.9665 15.2056 82.1986 14.897 82.328 14.468H84.6468C84.5468 15.1145 84.2882 15.667 83.8709 16.1255C83.4594 16.584 82.9598 16.9337 82.372 17.1747C81.7843 17.4157 81.173 17.5362 80.5381 17.5362C79.6388 17.5362 78.8453 17.3481 78.1576 16.9719C77.4758 16.5899 76.9438 16.052 76.5618 15.3585C76.1797 14.6649 75.9887 13.8478 75.9887 12.9074C75.9887 11.9963 76.1621 11.1764 76.5089 10.4475C76.8557 9.71276 77.3582 9.13379 78.0165 8.71059C78.6807 8.2815 79.4772 8.06696 80.4059 8.06696C81.3346 8.06696 82.1134 8.26387 82.7423 8.65769C83.3772 9.04562 83.8533 9.58933 84.1707 10.2888C84.4939 10.9824 84.6556 11.7847 84.6556 12.6958V13.3923H78.5367ZM78.5279 11.8582H82.2486C82.2486 11.4938 82.181 11.1587 82.0458 10.8531C81.9106 10.5474 81.7049 10.3064 81.4286 10.1301C81.1583 9.95375 80.8173 9.86559 80.4059 9.86559C80.0062 9.86559 79.6653 9.96257 79.3831 10.1565C79.1069 10.3446 78.8953 10.5915 78.7483 10.8972C78.6014 11.2028 78.5279 11.5231 78.5279 11.8582ZM87.6773 13.3923C87.6714 13.8567 87.7449 14.2622 87.8977 14.609C88.0505 14.9499 88.2709 15.2144 88.559 15.4025C88.8528 15.5847 89.2055 15.6759 89.617 15.6759C90.0578 15.6759 90.4428 15.5818 90.772 15.3937C91.107 15.2056 91.3392 14.897 91.4685 14.468H93.7873C93.6874 15.1145 93.4288 15.667 93.0114 16.1255C92.6 16.584 92.1004 16.9337 91.5126 17.1747C90.9248 17.4157 90.3135 17.5362 89.6787 17.5362C88.7794 17.5362 87.9859 17.3481 87.2982 16.9719C86.6163 16.5899 86.0844 16.052 85.7023 15.3585C85.3203 14.6649 85.1292 13.8478 85.1292 12.9074C85.1292 11.9963 85.3026 11.1764 85.6494 10.4475C85.9962 9.71276 86.4988 9.13379 87.1571 8.71059C87.8213 8.2815 88.6177 8.06696 89.5464 8.06696C90.4751 8.06696 91.254 8.26387 91.8829 8.65769C92.5177 9.04562 92.9938 9.58933 93.3112 10.2888C93.6345 10.9824 93.7961 11.7847 93.7961 12.6958V13.3923H87.6773ZM87.6685 11.8582H91.3891C91.3891 11.4938 91.3216 11.1587 91.1864 10.8531C91.0512 10.5474 90.8454 10.3064 90.5692 10.1301C90.2988 9.95375 89.9579 9.86559 89.5464 9.86559C89.1467 9.86559 88.8058 9.96257 88.5237 10.1565C88.2474 10.3446 88.0358 10.5915 87.8889 10.8972C87.7419 11.2028 87.6685 11.5231 87.6685 11.8582ZM94.7018 17.3599V8.2433H97.2322V9.53055C97.3733 9.30719 97.5555 9.09265 97.7788 8.88692C98.0081 8.67532 98.2961 8.50192 98.6429 8.36673C98.9897 8.23154 99.4011 8.16394 99.8772 8.16394C100.436 8.16394 100.956 8.27269 101.438 8.49017C101.926 8.70765 102.319 9.0515 102.619 9.52173C102.919 9.98608 103.069 10.5944 103.069 11.3468V17.3599H100.494V11.6642C100.494 11.1705 100.347 10.8002 100.054 10.5533C99.7597 10.3064 99.4011 10.183 98.9779 10.183C98.6958 10.183 98.4225 10.233 98.158 10.3329C97.8993 10.4328 97.6877 10.5827 97.5232 10.7825C97.3586 10.9824 97.2763 11.2293 97.2763 11.5231V17.3599H94.7018ZM107.776 17.5362C107.141 17.5362 106.529 17.4333 105.942 17.2276C105.354 17.016 104.857 16.6868 104.452 16.2401C104.046 15.7875 103.787 15.2027 103.676 14.4856H105.906C105.983 14.8089 106.121 15.0646 106.321 15.2526C106.527 15.4407 106.759 15.5759 107.017 15.6582C107.276 15.7346 107.523 15.7728 107.758 15.7728C108.252 15.7728 108.648 15.6964 108.948 15.5436C109.254 15.3849 109.407 15.1439 109.407 14.8206C109.407 14.5738 109.316 14.3768 109.133 14.2299C108.957 14.083 108.663 13.9713 108.252 13.8949L106.647 13.5598C105.842 13.3894 105.195 13.1014 104.707 12.6958C104.219 12.2843 103.97 11.7024 103.958 10.9501C103.958 10.4034 104.102 9.91261 104.39 9.47765C104.684 9.04269 105.116 8.69883 105.686 8.44608C106.256 8.19333 106.956 8.06696 107.784 8.06696C108.907 8.06696 109.803 8.31383 110.474 8.80757C111.149 9.30131 111.493 9.99784 111.505 10.8972H109.354C109.289 10.5445 109.113 10.2741 108.825 10.086C108.543 9.89204 108.187 9.79505 107.758 9.79505C107.311 9.79505 106.944 9.8744 106.656 10.0331C106.368 10.1918 106.224 10.4328 106.224 10.7561C106.224 10.9971 106.341 11.1881 106.576 11.3292C106.812 11.4644 107.176 11.5819 107.67 11.6818L109.151 12.0169C109.662 12.1403 110.077 12.3108 110.394 12.5283C110.717 12.7399 110.967 12.972 111.144 13.2248C111.32 13.4775 111.44 13.7332 111.505 13.9918C111.576 14.2446 111.611 14.4738 111.611 14.6796C111.611 15.285 111.449 15.8022 111.126 16.2313C110.803 16.6545 110.353 16.9778 109.777 17.2012C109.201 17.4245 108.534 17.5362 107.776 17.5362ZM112.535 17.3599V4.2581H115.092V9.557C115.239 9.3454 115.424 9.13673 115.647 8.93101C115.871 8.7194 116.15 8.54307 116.485 8.402C116.82 8.26093 117.229 8.1904 117.711 8.1904C118.292 8.1904 118.822 8.30501 119.298 8.53425C119.78 8.75761 120.165 9.08383 120.453 9.51292C120.747 9.942 120.893 10.4651 120.893 11.0823V17.3599H118.31V11.4614C118.31 11.05 118.16 10.7355 117.86 10.518C117.567 10.2947 117.208 10.183 116.785 10.183C116.509 10.183 116.241 10.233 115.982 10.3329C115.724 10.4328 115.512 10.5856 115.348 10.7914C115.189 10.9912 115.11 11.241 115.11 11.5408V17.3599H112.535ZM126.021 17.5362C125.127 17.5362 124.349 17.3452 123.684 16.9631C123.026 16.581 122.515 16.0403 122.15 15.3408C121.792 14.6414 121.612 13.8126 121.612 12.8545C121.612 11.8964 121.792 11.0588 122.15 10.3417C122.515 9.62459 123.026 9.0662 123.684 8.6665C124.349 8.26681 125.13 8.06696 126.03 8.06696C126.929 8.06696 127.708 8.26387 128.366 8.65769C129.024 9.04562 129.533 9.59814 129.891 10.3152C130.25 11.0323 130.429 11.8788 130.429 12.8545C130.429 13.7714 130.253 14.5826 129.9 15.2879C129.553 15.9874 129.051 16.537 128.393 16.9367C127.74 17.3364 126.95 17.5362 126.021 17.5362ZM126.03 15.623C126.482 15.623 126.847 15.4907 127.123 15.2262C127.399 14.9617 127.599 14.6149 127.722 14.1858C127.852 13.7509 127.916 13.2777 127.916 12.7663C127.916 12.2843 127.858 11.8288 127.74 11.3997C127.628 10.9706 127.434 10.6238 127.158 10.3593C126.882 10.0948 126.506 9.96257 126.03 9.96257C125.577 9.96257 125.21 10.0889 124.928 10.3417C124.651 10.5886 124.449 10.9265 124.319 11.3556C124.19 11.7788 124.125 12.2491 124.125 12.7663C124.125 13.2424 124.184 13.7009 124.302 14.1417C124.419 14.5767 124.616 14.9323 124.892 15.2086C125.169 15.4848 125.548 15.623 126.03 15.623ZM136.526 10.0331H134.498L134.516 14.8912C134.516 15.1145 134.542 15.282 134.595 15.3937C134.654 15.4995 134.742 15.5701 134.859 15.6053C134.983 15.6347 135.139 15.6494 135.327 15.6494H136.552V17.2364C136.435 17.2893 136.25 17.3393 135.997 17.3863C135.75 17.4333 135.403 17.4568 134.956 17.4568C134.157 17.4568 133.537 17.354 133.096 17.1483C132.661 16.9425 132.358 16.6545 132.188 16.2842C132.017 15.9139 131.932 15.4848 131.932 14.997V10.0331H130.451V8.2433H132.02L132.664 5.49246H134.498V8.23448H136.526V10.0331Z" fill="#DB1425"/>
<circle cx="9.32786" cy="10.8069" r="9.32786" fill="#DB1425"/>
<path fill-rule="evenodd" clip-rule="evenodd" d="M4.52138 8.94132H8.91168L8.12143 12.9595H3.73113L4.52138 8.94132Z" fill="white"/>
<path fill-rule="evenodd" clip-rule="evenodd" d="M10.2473 8.94132H14.6376L13.8473 12.9595H9.45702L10.2473 8.94132Z" fill="white"/>
</svg>